<?xml version="1.0" standalone="no"?>
<!DOCTYPE svg PUBLIC "-//W3C//DTD SVG 1.1//EN" "http://www.w3.org/Graphics/SVG/1.1/DTD/svg11.dtd" >
<svg xmlns="http://www.w3.org/2000/svg">
<metadata>Generated by IcoMoon</metadata>
<defs>
<font id="ms-lms-icon" horiz-adv-x="1024">
<font-face units-per-em="1024" ascent="960" descent="-64" />
<missing-glyph horiz-adv-x="1024" />
<glyph unicode="&#x20;" horiz-adv-x="512" d="" />
<glyph unicode="&#xe900;" glyph-name="checklist" horiz-adv-x="1097" d="M1042.152 831.947c30.293 0 54.85-24.557 54.85-54.85 0-27.768-20.635-50.717-47.407-54.349l-7.443-0.501h-548.497c-30.293 0-54.85 24.557-54.85 54.85 0 27.768 20.635 50.717 47.407 54.349l7.443 0.501h548.497zM1042.152 502.848c30.293 0 54.85-24.557 54.85-54.85 0-27.768-20.635-50.717-47.407-54.349l-7.443-0.501h-548.497c-30.293 0-54.85 24.557-54.85 54.85 0 27.768 20.635 50.717 47.407 54.349l7.443 0.501h548.497zM1042.152 173.749c30.293 0 54.85-24.557 54.85-54.85 0-27.768-20.635-50.717-47.407-54.349l-7.443-0.501h-548.497c-30.293 0-54.85 24.557-54.85 54.85 0 27.768 20.635 50.717 47.407 54.349l7.443 0.501h548.497zM300.034 933.309c25.689 16.055 59.528 8.246 75.583-17.443s8.246-59.528-17.443-75.583c-31.24-19.524-64.971-57.856-97.837-109.209-19.417-30.34-37.265-63.147-53.026-95.983l-11.935-25.756-7.319-17.16c-17.399-43.497-77.8-46.57-99.524-5.063-5.898 11.27-14.454 22.83-25.021 34.152-7.411 7.94-14.867 14.88-21.568 20.55l-12.159 9.568c-1.78 1.286-3.417 2.411-4.88 3.365-25.378 16.541-32.542 50.523-16 75.901s50.523 32.542 75.901 16c10.397-6.777 23.446-16.623 37.433-29.337l2.386-2.307 11.87 22.178c4.965 9.016 10.071 17.966 15.313 26.814l16.134 26.209c40.852 63.832 84.349 113.26 132.093 143.1zM300.034 329.961c25.689 16.055 59.528 8.246 75.583-17.443s8.246-59.528-17.443-75.583c-31.24-19.524-64.971-57.856-97.837-109.209-19.417-30.34-37.265-63.147-53.026-95.983l-11.935-25.756-7.319-17.16c-17.399-43.497-77.8-46.57-99.523-5.063-5.898 11.269-14.453 22.829-25.021 34.15-14.821 15.879-29.825 27.756-38.607 33.479-25.379 16.54-32.544 50.522-16.004 75.901s50.522 32.544 75.901 16.004c10.398-6.776 23.447-16.622 37.434-29.335l2.387-2.305 11.87 22.178c4.965 9.016 10.071 17.966 15.313 26.814l16.134 26.209c40.852 63.832 84.349 113.26 132.093 143.1z" />
<glyph unicode="&#xe901;" glyph-name="doc" d="M745.315 927.068l8.917-0.452c11.473-0.949 22.479-4.259 33.075-9.705 33.784-17.366 45.244-35.474 48.917-81.105 50.496 17.271 102.365 16.789 136.99-11.232 34.153-27.639 45.66-52.561 49.28-116.76l0.935-22.912 0.572-40.579-0.063-361.611-0.349-25.363-0.713-21.82-1.183-18.717c-2.906-34.624-9.268-53.273-22.92-71.793l-7.451-9.322-7.105-7.808c-14.328-14.665-30.039-23.893-59.369-32.527l-15.857-4.289-18.466-4.325-33.335-6.848-41.119-7.684c-5.043-0.917-10.253-1.858-15.634-2.825-72.713-13.077-135.305-33.92-185.327-59.411l-47.775-24.026-18.306-8.493-9.26-3.716c-2.785-1.015-5.306-1.819-7.673-2.454l-6.744-1.441c-1.083-0.17-2.155-0.308-3.229-0.42l-5.502-0.335c-2.661-0.229-5.336-0.23-7.991-0.013l-3.476 0.087-3.245 0.261-6.527 1.030c-2.239 0.477-4.578 1.102-7.126 1.916l-8.384 3.054c-1.538 0.618-3.157 1.293-4.869 2.032l-18.306 8.493-47.777 24.027c-50.012 25.49-112.607 46.332-185.327 59.409l-30.276 5.508-38.396 7.356-21.416 4.495-18.466 4.325-15.856 4.289c-29.328 8.633-45.038 17.86-59.366 32.521l-7.105 7.806c-18.888 22.076-26.983 40.727-30.374 81.123l-1.183 18.717-0.926 34.031-0.229 42.498 0.030 332.265 0.572 40.579 0.935 22.912c3.62 64.198 15.126 89.121 49.279 116.76 32.426 26.242 57.908 33.294 112.944 27.36l22.096-2.822 25.294-3.968 28.919-5.040c110.47-19.865 199.965-64.371 264.778-117.27 17.542 27.37 36.445 52.625 60.52 79.899 27.111 30.713 56.554 57.945 88.604 80.884 3.466 2.481 6.77 4.834 9.929 7.065v0l17.327 11.956 14.585 9.266c22.447 13.341 36.639 16.511 58.421 14.71zM113.989 755.432l-4.611-3.223c-5.27-4.266-8.93-9.842-11.424-20.996l-1.659-9.478c-0.242-1.776-0.469-3.657-0.679-5.648l-1.082-13.366-1.012-25.971-0.405-34.277 0.063-356.165 0.518-31.611 1.065-23.113 1.059-11.446 1.371-8.806c1.536-7.638 3.58-11.997 6.257-15.125l1.219-1.277 3.239-2.504 4.526-2.488 6.076-2.532 7.889-2.635 15.81-4.276 21.371-4.844 27.821-5.612 48.663-9.028c81.601-14.675 152.893-38.413 211.122-68.090l14.279-7.166 0.098 547.788c-53.456 50.394-135.783 95.838-241.975 114.934l-34.889 6.030-18.416 2.816-15.075 1.881-12.189 0.971c-14.531 0.698-22.586-0.969-29.033-4.745zM837.869 734.742l-0.025-369.695-0.275-28.792-0.713-14.082c-1.352-16.628-4.502-25.584-11.738-37.967v0l-4.737-7.507c-4-5.76-8.372-10.474-14.941-15.618v0l-9.054-6.474c-1.724-1.145-3.564-2.331-5.537-3.568v0l-13.53-8.153-27.753-15.833c-40.724-22.937-78.306-57.335-112.857-100.824-1.952-2.457-3.886-4.932-5.802-7.425 45.574 17.705 96.871 32.106 153.054 42.211l48.663 9.027 35.618 7.302 13.576 3.154 15.812 4.277 7.89 2.636 6.077 2.533 4.527 2.489c0.64 0.414 1.226 0.829 1.765 1.247l2.696 2.537 2.343 3.383c0.361 0.646 0.706 1.338 1.038 2.085l1.823 5.2 1.505 6.89 1.211 8.964 0.939 11.42 0.949 22.573 0.549 55.329-0.1 342.847-0.329 21.845-0.599 18.153-0.911 14.862c-0.36 4.45-0.779 8.418-1.264 11.969l-1.659 9.478c-2.494 11.154-6.154 16.731-11.425 20.996-8.338 6.748-43.907 0.379-76.783-17.466zM744.129 832.5l-12.848-8.416-16.137-11.193-6.991-4.974c-25.996-18.607-50.317-41.102-72.994-66.79-34.047-38.572-56.472-73.040-82.455-119.807l5.858 10.465v-454.417l5.254 6.769c36.885 46.428 77.526 85.032 122.843 113.732v0l17.215 10.294 40.69 23.181 0.186 445.17-0.62 55.984z" />
<glyph unicode="&#xe902;" glyph-name="footer-builder" d="M588.423 959.899l10.442-0.085 39.549-0.566 36.172-0.977 33.024-1.455 30.105-1.998c105.314-8.407 156.396-29.121 204.162-76.882v0l5.634-5.759c40.359-42.212 59.765-84.592 68.867-171.227v0l2.235-24.758 1.772-27.152 1.357-29.743 1.362-49.91 0.529-37.092 0.366-84.247-0.366-84.246-0.529-37.092-1.362-49.909-1.357-29.743-1.772-27.152c-0.332-4.321-0.685-8.541-1.057-12.666v0l-2.484-23.636c-10.060-82.704-30.91-123.158-73.195-165.448v0l-5.759-5.634c-3.837-3.668-7.676-7.164-11.55-10.495v0l-11.757-9.504c-35.78-27.074-77.038-41.419-147.923-48.866v0l-24.758-2.235-27.151-1.772-29.743-1.357-49.909-1.362-37.092-0.529-84.246-0.366-84.247 0.366-37.092 0.529-49.91 1.362-29.743 1.357-27.152 1.772c-4.321 0.332-8.541 0.685-12.666 1.057v0l-23.636 2.484c-82.704 10.060-123.156 30.91-165.443 73.195v0l-6.346 6.538c-43.272 45.981-62.511 97.097-70.536 197.648v0l-1.998 30.112c-0.285 5.255-0.55 10.633-0.791 16.136v0l-1.208 34.578-0.763 37.843-0.385 41.337-0.072 109.419 0.221 43.157 0.566 39.55 0.977 36.172 1.455 33.024 1.998 30.105c8.407 105.314 29.121 156.395 76.883 204.159v0l6.538 6.346c45.98 43.273 97.094 62.512 197.645 70.537v0l30.112 1.998c5.255 0.285 10.633 0.55 16.136 0.791v0l34.579 1.208 37.843 0.763 41.337 0.385 142.133-0.065zM922.788 253.029h-821.884l0.173-2.218 1.882-25.342 2.371-22.637c0.438-3.561 0.898-7.018 1.382-10.376v0l3.181-19.011c6.939-35.817 17.429-58.857 32.969-77.395v0l8.198-8.932c2.611-2.611 5.263-5.098 7.992-7.467v0l8.452-6.759c13.127-9.626 28.506-16.977 49.287-22.563v0l14.688-3.468c5.186-1.073 10.673-2.064 16.496-2.98v0l18.511-2.523c3.264-0.384 6.622-0.752 10.076-1.101v0l21.922-1.903 24.455-1.53 27.196-1.192 46.386-1.226 53.718-0.652 61.75-0.192 61.749 0.192 53.718 0.652 31.695 0.747 28.643 1.035 25.8 1.357 23.162 1.712 20.733 2.101 18.511 2.523c5.823 0.915 11.31 1.907 16.496 2.98v0l14.689 3.468c20.78 5.586 36.16 12.937 49.287 22.562v0l8.452 6.759c2.73 2.369 5.382 4.856 7.992 7.466v0l3.824 3.952c1.244 1.331 2.458 2.676 3.643 4.041v0l6.76 8.453c9.626 13.128 16.977 28.508 22.564 49.289v0l3.468 14.689c1.073 5.186 2.064 10.673 2.98 16.496v0l2.523 18.511c0.384 3.264 0.752 6.622 1.101 10.076v0l1.903 21.922 1.109 18.486zM576.283 862.442h-128.525c-6.724-0.034-13.288-0.079-19.696-0.136v0l-36.617-0.504-48.419-1.41-28.275-1.436-25.342-1.882-22.637-2.371c-3.561-0.438-7.018-0.898-10.376-1.382v0l-19.011-3.181c-35.817-6.939-58.856-17.429-77.393-32.97v0l-8.932-8.198-8.198-8.932c-15.54-18.537-26.030-41.575-32.97-77.385v0l-3.181-19.007c-0.483-3.359-0.943-6.815-1.382-10.374v0l-2.371-22.632-1.882-25.334-1.436-28.267c-0.204-4.969-0.392-10.069-0.564-15.305v0l-1.138-50.947-0.348-38.445-0.067-107.866 0.203-40.355 0.187-13.566h827.866l0.501 35.741 0.192 61.749-0.192 61.749-0.652 53.718-0.747 31.695-1.035 28.643-1.357 25.8-1.712 23.162-2.101 20.733-2.523 18.511c-0.915 5.823-1.907 11.31-2.98 16.496v0l-3.468 14.688c-5.586 20.78-12.938 36.16-22.563 49.287v0l-6.759 8.452c-2.369 2.73-4.856 5.382-7.467 7.992v0l-8.932 8.198c-18.537 15.54-41.577 26.030-77.387 32.969v0l-19.008 3.181c-3.359 0.483-6.815 0.943-10.374 1.382v0l-22.632 2.371-25.334 1.882-28.267 1.436c-4.969 0.204-10.069 0.392-15.305 0.564v0l-50.947 1.138-38.444 0.348z" />
<glyph unicode="&#xe903;" glyph-name="header-builder" d="M588.423 959.899l10.442-0.085 39.549-0.566 36.172-0.977 33.024-1.455 30.105-1.998c105.314-8.407 156.396-29.121 204.162-76.882v0l5.634-5.759c40.359-42.212 59.765-84.592 68.867-171.227v0l2.235-24.758 1.772-27.152 1.357-29.743 1.362-49.91 0.529-37.092 0.366-84.247-0.366-84.246-0.529-37.092-1.362-49.909-1.357-29.743-1.772-27.152c-0.332-4.321-0.685-8.541-1.057-12.666v0l-2.484-23.636c-10.060-82.704-30.91-123.158-73.195-165.448v0l-5.759-5.634c-3.837-3.668-7.676-7.164-11.55-10.495v0l-11.757-9.504c-35.78-27.074-77.038-41.419-147.923-48.866v0l-24.758-2.235-27.151-1.772-29.743-1.357-49.909-1.362-37.092-0.529-84.246-0.366-84.247 0.366-37.092 0.529-49.91 1.362-29.743 1.357-27.152 1.772c-4.321 0.332-8.541 0.685-12.666 1.057v0l-23.636 2.484c-82.703 10.060-123.156 30.91-165.443 73.195v0l-6.346 6.538c-43.272 45.981-62.511 97.097-70.536 197.648v0l-1.998 30.112c-0.285 5.255-0.55 10.633-0.791 16.136v0l-1.208 34.578-0.763 37.843-0.385 41.337-0.072 109.419 0.221 43.157 0.566 39.55 0.977 36.172 1.455 33.024 1.998 30.105c8.407 105.314 29.121 156.395 76.883 204.159v0l6.538 6.346c45.979 43.273 97.093 62.512 197.645 70.537v0l30.112 1.998c5.255 0.285 10.633 0.55 16.136 0.791v0l34.579 1.208 37.843 0.763 41.338 0.385 142.133-0.065zM925.779 545.607h-827.931l-0.258-33.263-0.067-107.866 0.203-40.355 0.504-36.617 1.41-48.418 1.436-28.275 1.882-25.342 2.371-22.637c0.438-3.561 0.898-7.018 1.382-10.376v0l3.181-19.011c6.939-35.817 17.429-58.857 32.969-77.395v0l8.198-8.932c2.611-2.611 5.263-5.098 7.992-7.467v0l8.452-6.759c13.127-9.626 28.507-16.977 49.287-22.563v0l14.688-3.468c5.186-1.073 10.673-2.064 16.496-2.98v0l18.511-2.523c3.264-0.384 6.622-0.752 10.076-1.101v0l21.922-1.903 24.455-1.53 27.196-1.192 46.386-1.226 53.718-0.652 61.749-0.192 61.749 0.192 53.718 0.652 31.695 0.747 28.643 1.035 25.8 1.357 23.162 1.712 20.733 2.101 18.511 2.523c5.823 0.915 11.31 1.907 16.496 2.98v0l14.689 3.468c20.78 5.586 36.16 12.937 49.287 22.562v0l8.452 6.759c2.73 2.369 5.382 4.856 7.992 7.466v0l3.824 3.952c1.244 1.331 2.458 2.676 3.643 4.041v0l6.76 8.453c9.626 13.128 16.977 28.508 22.564 49.289v0l3.468 14.689c1.073 5.186 2.064 10.673 2.98 16.496v0l2.523 18.511c0.384 3.264 0.752 6.622 1.101 10.076v0l1.903 21.922 1.53 24.455 1.192 27.196 1.226 46.385 0.653 53.718 0.192 61.749-0.192 61.75-0.501 35.812zM576.283 862.442h-128.525c-6.724-0.034-13.288-0.079-19.696-0.136v0l-36.617-0.504-48.419-1.41-28.275-1.436-25.342-1.882-22.637-2.371c-3.561-0.438-7.018-0.898-10.376-1.382v0l-19.011-3.181c-35.817-6.939-58.856-17.429-77.393-32.97v0l-8.932-8.198-8.198-8.932c-15.541-18.537-26.031-41.576-32.97-77.386v0l-3.181-19.007c-0.483-3.359-0.943-6.815-1.382-10.374v0l-2.371-22.632-1.882-25.334-0.173-2.174h821.884l-0.3 6.518-1.712 23.162-2.101 20.733-2.523 18.511c-0.915 5.823-1.907 11.31-2.98 16.496v0l-3.468 14.688c-5.586 20.78-12.938 36.16-22.563 49.287v0l-6.759 8.452c-2.369 2.73-4.856 5.382-7.467 7.992v0l-8.932 8.198c-18.537 15.54-41.577 26.030-77.387 32.969v0l-19.008 3.181c-3.359 0.483-6.815 0.943-10.374 1.382v0l-22.632 2.371-25.334 1.882-28.267 1.436c-4.969 0.204-10.069 0.392-15.305 0.564v0l-50.947 1.138-38.444 0.348z" />
<glyph unicode="&#xe904;" glyph-name="check" d="M0 482.91l136.533 139.636 273.067-279.273 477.867 488.727 136.533-139.636-614.4-628.364-409.6 418.909z" />
<glyph unicode="&#xe905;" glyph-name="chevron-up" d="M460.36 719.109c28.562 28.562 74.946 28.562 103.508 0l438.71-438.71c28.562-28.562 28.562-74.946 0-103.508s-74.946-28.562-103.508 0l-387.070 387.070-387.070-386.842c-28.562-28.562-74.946-28.562-103.508 0s-28.562 74.946 0 103.508l438.71 438.71z" />
<glyph unicode="&#xe906;" glyph-name="chevron-right" d="M783.109 499.64c28.562-28.562 28.562-74.946 0-103.508l-438.71-438.71c-28.562-28.562-74.946-28.562-103.508 0s-28.562 74.946 0 103.508l387.070 387.070-386.842 387.070c-28.562 28.562-28.562 74.946 0 103.508s74.946 28.562 103.508 0l438.71-438.71z" />
<glyph unicode="&#xe907;" glyph-name="chevron-down" d="M563.64 176.891c-28.562-28.562-74.946-28.562-103.508 0l-438.71 438.71c-28.562 28.562-28.562 74.946 0 103.508s74.946 28.562 103.508 0l387.070-387.070 387.070 386.842c28.562 28.562 74.946 28.562 103.508 0s28.562-74.946 0-103.508l-438.71-438.71z" />
<glyph unicode="&#xe908;" glyph-name="chevron-left" d="M240.891 396.36c-28.562 28.562-28.562 74.946 0 103.508l438.71 438.71c28.562 28.562 74.946 28.562 103.508 0s28.562-74.946 0-103.508l-387.070-387.070 386.842-387.070c28.562-28.562 28.562-74.946 0-103.508s-74.946-28.562-103.508 0l-438.71 438.71z" />
<glyph unicode="&#xe909;" glyph-name="arrow-top" horiz-adv-x="1365" d="M755.732 9.169v701.688l167.557-168.289c13.779-13.779 32.465-21.518 51.951-21.518s38.172 7.74 51.95 21.518c13.779 13.779 21.518 32.465 21.518 51.951s-7.74 38.172-21.518 51.951l-292.676 292.676c-6.959 6.662-15.164 11.883-24.146 15.365-17.814 7.319-37.795 7.319-55.608 0-8.982-3.482-17.187-8.704-24.146-15.365l-292.676-292.676c-6.861-6.803-12.301-14.895-16.013-23.811-3.719-8.917-5.632-18.48-5.632-28.139s1.913-19.223 5.632-28.139c3.712-8.917 9.152-17.010 16.013-23.811 6.803-6.858 14.893-12.301 23.808-16.016 8.921-3.715 18.483-5.627 28.141-5.627s19.226 1.912 28.141 5.627c8.916 3.715 17.009 9.157 23.81 16.016l167.557 168.289v-701.688c0-19.405 7.709-38.016 21.43-51.738 13.722-13.728 32.333-21.433 51.738-21.433s38.017 7.706 51.738 21.433c13.722 13.722 21.43 32.333 21.43 51.738z" />
<glyph unicode="&#xe90a;" glyph-name="arrow-right" horiz-adv-x="1365" d="M97.531 350.381h935.363l-224.332-223.356c-18.367-18.367-28.684-43.276-28.684-69.251s10.318-50.884 28.684-69.25c18.367-18.367 43.277-28.684 69.251-28.684s50.884 10.318 69.251 28.684l390.142 390.142c8.88 9.276 15.84 20.214 20.482 32.187 9.756 23.746 9.756 50.381 0 74.126-4.642 11.973-11.602 22.911-20.482 32.187l-390.142 390.142c-9.068 9.146-19.855 16.397-31.74 21.345-11.886 4.957-24.634 7.507-37.51 7.507s-25.625-2.55-37.51-7.507c-11.886-4.948-22.674-12.2-31.74-21.345-9.142-9.069-16.398-19.852-21.35-31.736-4.952-11.892-7.501-24.638-7.501-37.512s2.549-25.628 7.501-37.512c4.952-11.885 12.207-22.673 21.35-31.739l224.332-223.356h-935.363c-25.867 0-50.676-10.276-68.967-28.567-18.3-18.291-28.571-43.1-28.571-68.968s10.272-50.677 28.571-68.968c18.291-18.291 43.1-28.567 68.967-28.567z" />
<glyph unicode="&#xe90b;" glyph-name="arrow-bottom" horiz-adv-x="1365" d="M609.269 886.831v-701.688l-167.557 168.289c-13.779 13.779-32.465 21.518-51.951 21.518s-38.172-7.74-51.95-21.518c-13.779-13.779-21.518-32.465-21.518-51.951s7.74-38.172 21.518-51.951l292.676-292.676c6.959-6.662 15.164-11.883 24.146-15.365 17.814-7.319 37.795-7.319 55.608 0 8.982 3.482 17.187 8.704 24.146 15.365l292.676 292.676c6.861 6.803 12.301 14.895 16.013 23.811 3.719 8.917 5.632 18.48 5.632 28.139s-1.913 19.223-5.632 28.139c-3.712 8.917-9.152 17.010-16.013 23.811-6.803 6.858-14.893 12.301-23.808 16.016-8.921 3.715-18.483 5.627-28.141 5.627s-19.226-1.912-28.141-5.627c-8.916-3.715-17.009-9.157-23.81-16.016l-167.557-168.289v701.688c0 19.405-7.709 38.016-21.43 51.738-13.722 13.728-32.333 21.433-51.738 21.433s-38.017-7.706-51.738-21.433c-13.722-13.722-21.43-32.333-21.43-51.738z" />
<glyph unicode="&#xe90c;" glyph-name="arrow-left" horiz-adv-x="1365" d="M1267.468 545.619h-935.362l224.332 223.356c18.367 18.367 28.684 43.276 28.684 69.251s-10.318 50.884-28.684 69.25c-18.367 18.367-43.277 28.684-69.251 28.684s-50.884-10.318-69.251-28.684l-390.142-390.142c-8.88-9.276-15.84-20.214-20.482-32.187-9.756-23.746-9.756-50.381 0-74.126 4.642-11.973 11.602-22.911 20.482-32.187l390.142-390.142c9.068-9.146 19.855-16.397 31.74-21.345 11.886-4.957 24.634-7.507 37.51-7.507s25.625 2.55 37.51 7.507c11.886 4.948 22.674 12.2 31.74 21.345 9.142 9.069 16.398 19.852 21.35 31.736 4.952 11.892 7.501 24.638 7.501 37.512s-2.549 25.628-7.501 37.512c-4.952 11.885-12.207 22.673-21.35 31.739l-224.332 223.356h935.362c25.867 0 50.676 10.276 68.967 28.567 18.3 18.291 28.571 43.1 28.571 68.968s-10.272 50.677-28.571 68.968c-18.291 18.291-43.1 28.567-68.967 28.567z" />
<glyph unicode="&#xe90d;" glyph-name="code" horiz-adv-x="979" d="M618.263 936.395c-13.381-3.346-24.39-11.921-29.073-22.626-2.068-4.745-66.601-209.291-143.42-454.651-107.717-344.014-139.65-448.629-139.71-457.571 0-0.001 0-0.003 0-0.005 0-23.749 19.063-43.046 42.723-43.421h0.036c14.84-0.122 30.047 7.238 37.163 18.064 3.527 5.291 56.079 169.94 146.158 457.511 108.63 346.691 140.744 451.792 140.805 460.733 0 0.007 0 0.015 0 0.023 0 23.984-19.443 43.428-43.428 43.428-4.001 0-7.877-0.541-11.558-1.555l0.305 0.071zM191.772 711.351c-3.649-1.642-41.42-38.014-83.874-80.773-98.594-99.385-107.9-112.644-107.9-154.733 0-42.029 9.306-55.349 107.9-154.673 43.915-44.218 80.287-79.131 84.362-80.895 8.515-3.649 26.823-4.014 35.581-0.669 21.896 8.272 33.331 37.163 23.295 58.938-2.676 5.779-30.959 36.251-80.104 86.307-41.846 42.576-77.61 80.468-79.556 84.179-3.224 6.265-3.224 7.421 0.061 13.746 1.947 3.832 37.771 41.663 79.556 84.119 78.705 79.982 84.119 86.672 84.119 104.129 0 16.604-12.59 35.521-27.371 41.117-8.577 3.224-27.979 2.798-36.067-0.791zM749.336 711.351c-14.294-6.387-25.729-24.633-25.607-40.812 0.061-17.213 5.9-24.39 82.901-102.426 40.934-41.542 76.758-79.313 79.556-83.874l5.109-8.394-5.169-8.332c-2.798-4.623-38.684-42.516-79.677-84.179-48.658-49.51-75.968-78.948-78.645-84.787-9.914-21.835 1.46-50.666 23.356-58.938 8.758-3.346 27.066-2.981 35.581 0.669 4.075 1.764 40.447 36.677 84.362 80.895 98.594 99.324 107.9 112.644 107.9 154.673 0 42.089-9.306 55.349-107.9 154.733-43.915 44.218-80.287 79.069-84.362 80.833-9.063 3.892-28.648 3.832-37.406-0.061z" />
<glyph unicode="&#xe90e;" glyph-name="debug" horiz-adv-x="979" d="M246.943 933.371c-17.059-8.993-24.744-26.051-20.601-45.563 2.016-9.537 4.36-12.317 44.8-53.139 23.544-23.653 42.729-43.601 42.729-44.309 0-0.654-7.576-7.139-16.896-14.443-54.829-42.784-92.271-94.996-123.064-171.57-5.396-13.353-10.682-24.635-11.827-25.016-4.796-1.58-25.18 10.41-37.061 21.801-27.469 26.379-44.963 69.544-44.963 111.020 0 25.126-10.41 40.058-31.283 44.745-2.237 0.438-4.81 0.689-7.44 0.689-18.338 0-33.828-12.189-38.812-28.907l-0.073-0.286c-9.375-37.388 8.993-108.24 39.949-153.803 20.601-30.358 55.155-58.153 85.894-68.999 11.718-4.143 15.424-6.323 14.716-8.557-2.125-6.703-6.812-48.452-8.121-72.269l-1.418-25.344-52.158-0.654c-57.88-0.709-58.861-0.927-70.798-14.498-5.927-6.871-9.536-15.886-9.536-25.743 0-13.633 6.905-25.655 17.409-32.757l0.14-0.089 8.284-5.505 114.016-1.962 5.396-24.035c5.777-26.051 15.805-59.897 21.801-73.958l3.816-8.83-16.787-8.175c-57.827-28.287-100.61-98.211-109.002-178.166-2.834-26.869-0.545-40.495 8.72-51.013 10.846-12.371 30.14-17.931 43.929-12.699 6.868 2.616 18.967 13.625 22.509 20.438 1.689 3.27 3.761 16.296 4.85 30.903 2.18 28.613 10.083 55.646 22.182 75.975 10.846 18.203 28.995 36.461 42.729 43.002 6.595 3.107 12.917 5.668 14.007 5.668 1.089-0.055 7.739-9.375 14.769-20.819 34.063-55.319 99.52-110.747 160.616-135.926 39.35-16.241 72.76-22.019 117.777-20.492 47.525 1.635 76.248 8.83 120.503 30.303 56.9 27.633 110.038 75.43 146.172 131.457 5.45 8.502 10.028 13.516 12.317 13.516 7.794 0 24.58-10.737 36.244-23.217 8.813-9.493 16.151-20.516 21.551-32.594l0.304-0.76c12.371-25.833 16.351-40.822 18.094-68.344 1.089-16.787 2.452-23.981 5.777-30.467 11.173-21.583 41.476-27.033 60.605-10.9 10.083 8.448 13.571 18.694 13.625 39.622 0.164 59.57-29.921 131.076-70.525 167.864-11.882 10.737-33.083 24.798-43.329 28.667-10.628 4.087-10.9 4.85-6.377 17.441 8.884 24.526 18.312 60.605 23.217 89.001l1.309 7.521h55.973c51.559 0 56.518 0.327 63.603 3.925 32.647 16.623 27.523 63.875-8.012 74.067-3.761 1.089-28.94 1.962-55.973 1.962h-49.161l-1.254 34.445c-0.569 18.7-2.017 36.378-4.321 53.787l0.288-2.664c-2.562 15.151-2.507 16.732 0.436 17.605 68.509 20.383 121.92 85.949 134.946 165.575 6.976 42.947 5.995 61.15-4.087 74.503-11.664 15.369-35.426 19.512-52.266 9.048-13.68-8.393-17.605-17.931-20.221-48.724-1.126-14.434-3.368-27.726-6.677-40.59l0.354 1.622c-11.009-35.917-34.227-66.11-60.552-78.646-4.058-2.278-8.761-4.248-13.7-5.662l-0.47-0.115c-2.019 4.025-5.375 11.785-8.565 19.629l-1.408 3.915c-12.556 30.903-26.245 57.218-42.042 82.062l1.22-2.054c-21.637 32.701-57.936 72.596-87.094 95.759l-14.607 11.609 40.767 40.767c45.945 45.836 49.65 51.231 48.343 69.653-0.382 12.658-7.072 23.673-17.021 30.051l-0.148 0.088c-9.211 6.323-28.831 7.794-38.587 2.889-3.761-1.853-29.376-25.833-56.954-53.302l-50.141-49.923-12.808 4.196c-25.551 8.343-54.953 13.154-85.48 13.154-32.385 0-63.504-5.414-92.504-15.386l1.999 0.597-11.337-3.925-49.597 49.814c-31.229 31.393-52.593 51.34-57.771 53.793-9.919 4.85-27.36 5.123-35.862 0.654zM511.71 766.76c46.163-4.85 86.058-23.708 128.133-60.496 16.078-14.062 47.252-48.997 55.918-62.677l3.978-6.268-17.605-9.319c-120.284-64.094-258.010-65.457-378.403-3.816-26.542 13.625-25.615 12.371-17.822 23.926 43.438 64.094 115.598 110.529 184.324 118.541 20.33 2.343 20.383 2.343 41.476 0.109zM321.064 529.298c38.206-13.898 100.228-28.231 121.92-28.231h6.812v-76.466c0.055-75.376 0.109-76.521 4.523-84.26 7.248-12.644 17.549-19.675 30.467-20.71 20.274-1.689 37.933 9.428 42.784 26.978 1.309 4.632 2.125 35.644 2.125 80.062 0 56.3 0.6 72.65 2.507 73.196 1.362 0.327 13.462 2.125 26.815 3.925 50.577 6.812 99.356 22.564 153.095 49.488 16.351 8.175 23.817 11.009 24.417 9.266l4.796-13.516c6.104-17.114 11.773-39.077 16.569-64.039 3.87-19.948 4.414-29.758 4.523-75.866 0.055-55.428-0.872-65.457-10.192-107.913-11.173-50.741-35.808-109.384-60.932-144.865-18.040-25.506-54.665-61.968-76.139-75.866-41.693-27.033-77.446-38.968-121.048-40.549-29.049-1.089-41.802 0.6-67.309 8.884-55.1 17.822-110.911 63.657-143.285 117.668-72.051 120.012-87.692 251.033-45.345 379.876l5.995 18.367 27.36-13.68c15.042-7.521 37.333-17.332 49.541-21.746z" />
<glyph unicode="&#xe90f;" glyph-name="practices" horiz-adv-x="979" d="M325.365 937.11c-50.156-0.89-130.435-7.419-159.618-13.059-82.555-15.778-140.377-78.845-158.481-172.676-7.123-37.048-7.716-64.748-7.074-334.371l0.643-257.555 4.056-17.708c22.951-100.361 80.675-162.635 161.745-174.507 74.343-10.882 460.403-11.427 541.128-0.791 45.42 6.508 85.26 26.647 116.178 56.075l-0.088-0.082c26.71 25.672 42.835 55.695 50.848 94.524 7.667 37.444 14.344 140.476 13.454 207.844l-0.593 45.605-5.539 6.975c-16.916 21.269-47.584 19.538-60.79-3.512-4.303-7.568-4.402-8.409-5.539-69.347-1.188-61.335-2.967-93.238-8.014-141.168-5.045-48.078-11.377-64.253-34.327-87.55-15.729-15.927-29.331-24.089-53.915-32.3-25.721-8.607-97.788-11.921-259.879-11.921-158.382 0-271.998 3.808-294.503 9.843-47.336 12.762-83.198 64.945-91.062 132.512-1.237 10.931-1.682 102.488-1.237 275.707 0.643 237.324 0.989 260.918 3.907 278.23 6.677 39.669 19.142 68.062 39.225 89.528 22.951 24.534 44.962 33.684 94.92 39.372 47.832 5.392 84.187 7.271 142.8 7.271 52.728 0 53.816 0.099 61.681 4.204 10.629 5.582 18.010 16.087 19.132 28.401l0.010 0.139c0.841 8.508 0.248 11.278-4.254 19.835-2.912 6.801-8.275 12.084-14.952 14.822l-0.183 0.067c-9.349 4.65-11.525 4.946-38.928 5.441-8.949 0.179-19.499 0.281-30.072 0.281-7.27 0-14.53-0.048-21.778-0.144l1.1 0.011zM689.91 935.329c-70.634-9.2-128.456-38.977-171.736-88.489-40.325-45.422-64.954-105.568-64.954-171.465 0-0.773 0.003-1.547 0.010-2.319l-0.001 0.118c0-70.188 27.254-135.53 77.262-185.339 47.507-47.395 113.079-76.702 185.495-76.702 73.372 0 139.716 30.086 187.371 78.593l0.038 0.039c46.731 47.119 75.609 112.007 75.609 183.64 0 29.723-4.972 58.286-14.13 84.9l0.549-1.834c-32.003 95.712-113.32 163.179-213.78 177.474-16.768 2.374-48.671 3.116-61.73 1.385zM762.174 857.869c68.29-17.591 121.003-70.337 138.257-137.322l0.289-1.323c4.056-15.235 4.65-21.17 4.65-45.605 0-24.682-0.593-30.321-4.798-46.248-9.22-34.666-26.845-64.426-50.592-88.036l-0.009-0.009c-34.304-34.319-81.701-55.546-134.058-55.546-19.018 0-37.382 2.801-54.701 8.012l1.342-0.347c-55.646 16.125-103.577 60.098-124.103 113.816-7.908 20.236-12.492 43.664-12.492 68.163 0 30.078 6.908 58.542 19.225 83.892l-0.501-1.142c17.955 36.949 49.464 69.199 85.374 87.451 15.903 7.54 34.414 13.699 53.758 17.55l1.542 0.257c8.639 1.248 18.616 1.961 28.758 1.961 17.046 0 33.621-2.013 49.502-5.814l-1.443 0.291zM799.618 777.541c-8.26-1.434-36.949-16.57-49.562-26.116-20.619-16.366-38.898-33.924-55.407-53.051l-0.437-0.518-17.411-20.428-4.056-4.699-4.996 6.332c-11.080 14.047-21.764 24.286-28.639 27.453-4.264 1.939-9.247 3.069-14.493 3.069-16.569 0-30.508-11.269-34.567-26.562l-0.057-0.25c-3.363-12.96-0.198-23.941 10.437-36.603 10.536-12.464 21.319-28.639 33.042-49.315 11.327-20.131 20.131-26.759 35.465-26.908 16.026-0.099 23.891 5.392 39.225 27.354 19.489 27.897 35.713 47.832 55.844 68.606 21.269 21.912 32.3 30.767 48.326 38.68 16.768 8.26 21.319 11.871 25.672 20.428 6.925 13.553 3.71 33.833-6.925 43.132-7.254 6.003-16.652 9.645-26.9 9.645-1.605 0-3.191-0.089-4.749-0.263l0.192 0.018zM247.165 434.959c-28.145-13.85-28.046-53.173 0.198-66.232 6.776-3.116 13.702-3.363 105.209-3.363s98.383 0.248 105.159 3.363c12.658 5.899 21.272 18.515 21.272 33.143 0 14.666-8.66 27.309-21.146 33.094l-0.226 0.093c-8.805 4.204-201.958 4.105-210.466-0.099zM247.363 253.973c-8.172-4.193-14.6-10.811-18.444-18.896l-0.106-0.247c-1.589-4.47-2.506-9.625-2.506-14.994 0-4.435 0.627-8.725 1.795-12.783l-0.080 0.326c4.044-8.728 10.724-15.663 19.006-19.922l0.236-0.11c6.975-3.165 16.867-3.314 195.973-3.314 179.601 0 188.95 0.149 196.023 3.314 25.918 11.822 28.54 47.485 4.699 63.858l-6.38 4.353-192.413 0.396c-156.749 0.347-193.352-0.050-197.803-1.979z" />
<glyph unicode="&#xe910;" glyph-name="safety" horiz-adv-x="979" d="M435.311 956.447c-56.913-9.183-98.833-25.37-182.88-70.506-68.12-36.628-96.447-49.702-135.721-62.724-44.462-14.786-60.078-21.997-72.425-33.515-18.055-16.913-25.526-39.118-34.968-104.385-5.773-34.445-9.073-74.133-9.073-114.591 0-4.182 0.035-8.356 0.106-12.521l-0.008 0.626c0.156-96.343 14.941-177.64 47.316-259.664 55.72-141.22 156.785-251.052 292.297-317.564 38.496-18.885 69.677-31.803 97.484-40.415 15.824-4.877 19.145-5.188 52.089-5.188 40.311 0 46.122 1.297 96.083 21.115 193.827 77.095 324.62 227.757 373.699 430.508 13.593 56.187 19.3 106.564 19.403 171.208 0.027 2.442 0.042 5.327 0.042 8.215 0 57.708-6.081 113.994-17.634 168.256l0.939-5.264c-6.070 30.506-13.282 46.33-26.77 59.092-12.762 12.089-27.705 19.040-72.945 34.086-39.17 12.97-67.445 26.044-135.928 62.724-86.693 46.434-129.754 62.776-187.965 71.285-14.525 1.767-31.344 2.775-48.398 2.775-19.301 0-38.3-1.291-56.915-3.792l2.174 0.239zM536.324 880.285c44.151-7.574 85.396-24.229 160.676-65.058 68.949-37.406 102.621-52.763 140.494-64.125 7.782-2.334 21.168-6.796 29.779-9.91 18.314-6.641 16.653-3.113 24.591-51.31 13.748-83.632 14.112-174.631 0.882-248.042-21.168-117.718-70.455-214.527-149.158-292.972-57.848-57.64-119.637-96.343-204.463-127.939l-23.918-8.924-25.681 0.052c-28.482 0.052-32.114 0.986-80.778 21.375-173.802 72.685-288.147 217.537-322.441 408.407-9.028 50.169-12.4 130.533-7.678 182.622 4.254 47.108 14.994 108.794 19.403 111.544 1.349 0.83 18.314 6.796 37.666 13.178 54.683 18.106 77.562 28.431 146.097 65.889 60.597 33.151 101.22 51.050 137.951 60.7 20.9 5.238 44.892 8.244 69.587 8.244 16.59 0 32.865-1.356 48.718-3.966l-1.727 0.234zM718.789 627.002c-11.207-2.543-44.307-18.885-63.295-31.232-45.811-29.884-95.201-76.213-147.861-138.73-17.173-20.389-58.159-72.478-61.894-78.703-1.661-2.75-2.127-2.698-4.773 0.726-5.593 6.364-11.012 12.144-16.608 17.749l0.006-0.006c-45.24 46.019-95.357 54.268-111.959 18.417-2.067-4.498-3.272-9.758-3.272-15.3 0-11.584 5.266-21.939 13.535-28.8l0.062-0.050c3.912-3.397 8.651-5.948 13.871-7.313l0.241-0.054c21.323-3.891 44.669-27.185 65.682-65.629 10.739-19.714 17.328-26.252 29.832-29.468 7.938-2.075 11.31-2.075 19.196-0.052 12.451 3.269 16.083 6.9 35.538 35.383 39.585 58.055 89.235 118.963 132.66 162.751 43.372 43.683 79.534 70.61 113.62 84.669 15.876 6.537 23.347 12.762 28.378 23.658 12.866 27.809-12.659 58.73-42.957 51.985z" />
<glyph unicode="&#xe911;" glyph-name="settings" horiz-adv-x="979" d="M378.221 957.426c-8.108-4.103-14.459-10.687-18.16-18.744l-0.1-0.244c-3.165-6.848-3.527-13.229-3.58-64.173l-0.052-56.547-262.139-1.037-7.315-5.81c-18.624-14.837-20.752-39.843-4.825-56.651 11.725-12.347 3.736-11.672 145.413-12.243l128.865-0.519 0.052-55.613c0.052-50.010 0.415-56.34 3.58-63.187 6.010-13.293 19.155-22.376 34.421-22.376s28.411 9.083 34.325 22.138l0.096 0.237c3.372 7.212 3.527 15.668 3.58 157.969l0.052 150.342-4.254 8.405c-3.117 5.485-6.972 10.15-11.501 14.054l-0.068 0.057c-6.122 4.876-9.182 5.862-19.973 6.381-9.078 0.467-14.371-0.26-18.416-2.439zM520.886 814.97c-12.192-5.447-21.892-21.010-21.841-34.81 0.104-14.474 13.178-32.58 26.147-36.211 6.796-1.868 349.813-1.868 356.609 0 7.574 2.127 18.624 12.607 22.618 21.374 7.159 15.719 2.179 34.032-12.295 45.549l-7.315 5.81-179.135 0.415c-146.763 0.364-180.12-0.052-184.789-2.127zM663.551 624.733c-8.496-4.504-15.099-11.625-18.832-20.275l-0.103-0.268c-2.594-6.173-2.957-25.679-2.905-156.931 0.052-141.783 0.26-150.29 3.58-157.449 6.796-14.733 18.054-21.892 34.446-21.892 16.341 0 27.6 7.159 34.395 21.892 3.216 6.848 3.527 13.125 3.58 63.239l0.052 55.613h75.067c47.364 0 78.595 0.778 84.769 2.127 17.252 3.676 30.005 18.787 30.005 36.876 0 11.557-5.205 21.898-13.399 28.807l-0.056 0.047c-10.686 9.389-18.416 10.168-101.318 10.168h-75.067l-0.052 55.613c-0.052 50.114-0.364 56.391-3.58 63.239-4.098 8.871-12.192 17.016-19.817 19.869-7.315 2.75-23.864 2.439-30.763-0.675zM98.962 483.936c-16.014-4.575-27.539-19.081-27.539-36.277 0-18.080 12.738-33.183 29.73-36.826l0.247-0.044c13.696-2.957 429.653-2.957 443.297 0 12.015 2.734 21.742 10.739 26.772 21.396l0.1 0.237c1.996 4.456 3.158 9.656 3.158 15.129 0 18.129-12.756 33.279-29.782 36.963l-0.249 0.045c-15.097 3.268-433.493 2.698-445.736-0.622zM479.435 293.699c-10.997-3.079-19.78-10.756-24.288-20.774l-0.096-0.237c-3.32-7.212-3.527-15.668-3.58-157.969v-150.342l4.254-8.405c3.117-5.513 6.99-10.197 11.551-14.104l0.070-0.058c6.744-5.395 8.456-5.81 22.152-5.81s15.408 0.415 22.152 5.81c4.629 3.965 8.504 8.649 11.487 13.906l0.134 0.258c4.151 8.145 4.254 10.064 4.254 65.055v56.599l357.283 1.037 7.315 5.81c18.624 14.837 20.752 39.843 4.825 56.651-11.879 12.503 1.349 11.672-192.986 12.243l-176.436 0.519v55.147c0 45.549-0.519 56.444-2.957 62.253-5.563 14.081-19.055 23.86-34.83 23.86-3.67 0-7.216-0.529-10.567-1.516l0.265 0.066zM104.305 152.903c-1.037-0.364-4.254-1.193-7.107-1.815-7.315-1.608-18.52-12.088-22.618-21.063-7.159-15.719-2.179-34.032 12.295-45.549l7.315-5.81h267.535l7.263 5.81c18.676 14.837 20.803 39.843 4.876 56.651-11.725 12.347-4.047 11.672-142.094 12.088-14.117 0.108-30.807 0.17-47.514 0.17-28.11 0-56.178-0.175-84.205-0.523l4.255 0.042z" />
<glyph unicode="&#xe912;" glyph-name="edit" d="M601.216 952.206c-34.769-7.945-64.445-26.161-86.502-51.243l-0.156-0.181c-6.666-7.705-47.961-60.080-106.568-135.051-12.466-16.016-99.384-127-193.226-246.641-197.036-251.402-192.447-245.515-199.546-259.453-12.899-25.712-18.353-61.292-13.419-87.004 7.098-36.36 45.363-195.304 48.566-201.537 5.977-10.974 15.134-19.573 26.226-24.7l0.352-0.146 10.389-4.935 89.081 0.606c101.894 0.693 130.549 2.164 148.122 7.965 27.703 9.090 49.605 24.067 68.045 46.402 9.436 11.341 321.524 409.134 401.949 512.24l52.202 66.746c49.691 63.716 59.648 85.272 59.734 130.376 0.086 47.181-18.094 89.341-53.501 124.143-11.514 11.427-84.407 69.603-110.984 88.736-17.752 12.74-38.35 23.018-60.497 29.738l-1.488 0.389c-14.38 3.83-30.889 6.028-47.912 6.028-10.9 0-21.589-0.902-31.996-2.635l1.129 0.155zM663.114 836.114c14.024-6.926 88.908-64.235 109.425-83.714 21.037-19.998 28.309-44.497 19.045-64.063-3.29-7.012-51.163-70.209-59.648-78.693-2.943-3.030-8.484 0.953-95.055 68.824-39.306 30.305-69.791 54.776-99.878 79.709l6.209-4.998c-1.299 1.991 6.060 12.552 28.482 41.035 16.622 21.123 32.55 39.91 35.407 41.814 15.756 10.302 35.321 10.389 56.012 0.086zM565.808 593.023c51.509-40.342 93.756-73.932 94.016-74.624-92.774-121.971-151.192-196.543-210.119-270.693l31.869 41.54c-137.734-175.739-180.154-228.633-185.175-231.144-5.8-2.771-16.016-3.376-80.165-4.501-43.632-0.779-73.585-0.606-73.585 0.433-10.358 50.253-15.989 74.233-21.838 98.127l5.564-26.879c-12.38 53.155-15.842 71.161-14.89 76.442s25.625 37.918 106.742 141.457l179.288 228.893c40.689 51.769 74.104 94.189 74.364 94.189s42.507-32.984 93.93-73.239zM591 50.829c-19.802-3.582-35.708-17.333-42.299-35.543l-0.122-0.384c-1.577-5.439-2.484-11.686-2.484-18.145 0-9.188 1.835-17.949 5.159-25.933l-0.165 0.446c5.28-10.389 18.44-22.076 29.607-26.404 8.916-3.376 16.968-3.55 205.259-3.55h195.997l8.916 4.069c6.61 3.516 12.285 7.754 17.224 12.723l0.003 0.003c27.096 27.875 18.44 72.114-17.401 88.908l-10.562 5.021-189.417 0.26c-108.040 0.173-193.919-0.519-199.719-1.472z" />
<glyph unicode="&#xe913;" glyph-name="reply" d="M571.282 673.762l11.986-1.59c283.642-39.469 440.732-232.069 440.732-547.554 0-105.118-138.007-140.618-189.956-53.123l-8.194 15.089c-36.613 63.973-114.079 106.515-236.857 122.55l-17.712 2.096-0.012-108.166c0-89.729-107.219-136.056-172.559-74.563l-366.496 344.942c-42.952 40.425-42.952 108.689 0 149.116l366.496 344.937c65.341 61.497 172.559 15.171 172.559-74.558l0.012-119.175zM468.882 792.937l-366.496-344.937 366.496-344.936v215.585c234.128 0 387.623-65.106 452.734-194.029 0 293.892-148.481 447.205-436.865 452.586l-15.869 0.148v215.586z" />
<glyph unicode="&#xe914;" glyph-name="checkmark-circle" d="M972.644 500.531h0.154c28.211 0 51.149-22.835 51.2-51.046 0.41-136.755-52.48-265.522-148.941-362.495-96.41-96.973-224.818-150.579-361.573-150.989h-1.485c-136.241 0-264.393 52.838-361.008 148.941-96.973 96.41-150.579 224.818-150.989 361.573-0.41 136.806 52.48 265.522 148.941 362.495 96.41 96.973 224.818 150.579 361.573 150.989 40.701-0.614 82.173-4.71 121.905-14.234 27.443-6.656 44.39-34.304 37.734-61.798-6.605-27.443-34.406-44.339-61.747-37.786-31.795 7.68-65.536 10.906-97.585 11.418-109.414-0.307-212.172-43.213-289.279-120.781-77.158-77.568-119.45-180.582-119.142-289.996s43.213-212.121 120.781-289.279c77.312-76.851 179.814-119.142 288.816-119.142h1.178c109.414 0.307 212.172 43.213 289.279 120.781 77.158 77.619 119.45 180.582 119.142 289.996-0.051 28.262 22.784 51.302 51.046 51.354zM322.203 484.204c20.019 20.019 52.378 20.019 72.397 0l114.893-114.893 322.403 368.434c18.637 21.146 50.944 23.398 72.243 4.762 21.248-18.586 23.398-50.944 4.762-72.243l-358.399-409.599c-9.318-10.65-22.63-16.947-36.813-17.459h-1.69c-13.565 0-26.57 5.376-36.196 15.002l-153.6 153.6c-20.019 20.019-20.019 52.378 0 72.397z" />
<glyph unicode="&#xe915;" glyph-name="quote" d="M459.31 229.226c0-48.87-19.853-91.634-59.562-128.286-38.944-36.653-85.142-54.979-138.595-54.979-83.997 0-148.521 27.87-193.574 83.614s-67.579 132.869-67.579 231.374c0 91.632 38.562 184.029 115.687 277.189 77.888 93.162 171.43 163.795 280.627 211.902l50.398-81.325c-86.288-41.998-153.867-90.869-202.739-146.613-48.87-55.744-77.125-123.323-84.76-202.738h64.143c47.344 0 85.907-5.346 115.688-16.037s53.834-25.581 72.16-44.67c17.563-18.326 29.781-38.563 36.654-60.707 7.635-22.144 11.453-45.053 11.453-68.725zM1024 229.226c0-48.87-19.854-91.634-59.562-128.286-38.944-36.653-85.142-54.979-138.595-54.979-83.997 0-148.522 27.87-193.574 83.614s-67.579 132.869-67.579 231.374c0 91.632 38.562 184.029 115.686 277.189 77.888 93.162 171.43 163.795 280.626 211.902l50.398-81.325c-86.288-41.998-153.867-90.869-202.738-146.613s-77.125-123.323-84.762-202.738h64.144c47.344 0 85.906-5.346 115.686-16.037s53.835-25.581 72.162-44.67c17.563-18.326 29.781-38.563 36.653-60.707 7.637-22.144 11.454-45.053 11.454-68.725z" />
<glyph unicode="&#xe916;" glyph-name="document" d="M669.089 645.819h230.4l-282.76 282.763v-230.4c0-31.418 20.942-52.364 52.361-52.364zM669.089 541.092c-89.015 0-157.088 68.072-157.088 157.091v261.818h-261.818c-89.018 0-157.091-68.073-157.091-157.091v-709.818c0-89.018 68.073-157.091 157.091-157.091h523.633c89.018 0 157.091 68.073 157.091 157.091v448h-261.818zM354.91 669.092h52.364c31.418 0 52.364-20.945 52.364-52.364s-20.945-52.364-52.364-52.364h-52.364c-31.418 0-52.364 20.945-52.364 52.364s20.945 52.364 52.364 52.364zM669.089 145.455h-314.179c-31.418 0-52.364 20.945-52.364 52.364s20.945 52.364 52.364 52.364h314.179c31.418 0 52.364-20.945 52.364-52.364s-20.945-52.364-52.364-52.364zM669.089 354.909h-314.179c-31.418 0-52.364 20.945-52.364 52.365s20.945 52.364 52.364 52.364h314.179c31.418 0 52.364-20.945 52.364-52.364s-20.945-52.365-52.364-52.365z" />
<glyph unicode="&#xe917;" glyph-name="facebook" d="M1024 444.87c0 284.499-229.229 515.13-512 515.13s-512-230.632-512-515.13c0-257.119 187.231-470.227 432-508.87v359.968h-130v148.902h130v113.49c0 129.105 76.438 200.418 193.389 200.418 56.019 0 114.611-10.061 114.611-10.061v-126.771h-64.563c-63.602 0-83.437-39.708-83.437-80.446v-96.63h142.003l-22.701-148.902h-119.302v-359.968c244.768 38.643 432 251.75 432 508.87z" />
<glyph unicode="&#xe918;" glyph-name="life_west" d="M512 960c-282.81 0-512-229.19-512-512s229.19-512 512-512c282.72 0 512 229.19 512 512s-229.28 512-512 512zM930.912 448c-0.032-75.211-20.48-149.005-59.162-213.504l-103.283 103.238c15.034 34.816 22.797 72.338 22.803 110.261s-7.738 75.449-22.758 110.271l103.283 103.238c38.65-64.513 59.078-138.3 59.117-213.504zM152.204 234.496c-37.283 62.605-59.112 135.494-59.112 213.504s21.83 150.9 59.112 213.504l103.284-103.284c-14.615-33.839-22.761-71.075-22.761-110.22s8.146-76.381 22.761-110.22l-103.284-103.284zM325.818 448c0 49.379 19.615 96.735 54.531 131.651s82.272 54.531 131.651 54.531c49.379 0 96.735-19.615 131.648-54.531 34.918-34.916 54.534-82.272 54.534-131.651s-19.616-96.735-54.534-131.648c-34.913-34.918-82.269-54.534-131.648-54.534s-96.735 19.616-131.651 54.534c-34.916 34.913-54.531 82.269-54.531 131.648zM725.504 807.75l-103.284-103.284c-34.787 15.080-72.305 22.843-110.22 22.808-39.145 0-76.381-8.146-110.22-22.761l-103.284 103.238c64.503 38.677 138.294 59.124 213.504 59.159 78.057 0 150.854-21.83 213.504-59.159zM298.496 88.25l103.284 103.283c34.787-15.078 72.305-22.842 110.22-22.803 39.145 0 76.381 8.141 110.22 22.758l103.284-103.238c-64.506-38.675-138.294-59.123-213.504-59.162-75.21 0.038-149.001 20.486-213.504 59.162z" />
<glyph unicode="&#xe919;" glyph-name="play" d="M986.458 640.628c-25.709 63.492-63.616 120.527-112.518 169.431s-105.818 86.688-169.434 112.516c-61.216 24.751-126.024 37.425-192.506 37.425s-131.288-12.674-192.628-37.545c-63.492-25.708-120.527-63.611-169.431-112.516s-86.688-105.82-112.516-169.431c-24.751-61.22-37.425-126.027-37.425-192.508s12.555-131.29 37.425-192.627c25.708-63.494 63.611-120.525 112.516-169.434 48.904-48.902 105.82-86.688 169.431-112.512 61.34-24.87 126.147-37.427 192.628-37.427s131.29 12.672 192.627 37.427c63.494 25.709 120.525 63.61 169.434 112.512 48.902 48.909 86.688 105.824 112.512 169.434 24.87 61.338 37.427 126.146 37.427 192.627s-12.672 131.288-37.542 192.628zM746.118 415.716l-0.954-0.598c-1.677-1.076-2.874-1.793-3.712-2.272l-316.979-194.779c-6.696-2.989-14.946-4.064-20.446-4.064-24.273 0-45.437 18.65-47.469 41.491v380.351c0 4.065 1.315 7.293 2.511 9.565 4.544 20.805 23.795 36.589 45.915 36.589 6.337 0 12.914-1.316 18.414-3.707l1.076-0.478 0.957-0.598 312.675-182.344c8.966-5.261 8.966-5.261 10.048-6.098l0.115-0.12c8.608-7.055 14.349-16.86 16.262-27.741 0.48-2.75 0.717-5.38 0.717-7.891 0-14.707-7.174-28.697-19.13-37.306z" />
<glyph unicode="&#xe91a;" glyph-name="cancel" d="M632.207 448.073l366.579 365.779c16.054 16.055 25.072 37.831 25.072 60.536s-9.018 44.481-25.072 60.537c-16.054 16.055-37.826 25.075-60.529 25.075s-44.475-9.019-60.529-25.075l-365.726-366.631-365.726 366.631c-16.054 16.055-37.826 25.075-60.529 25.075s-44.475-9.019-60.528-25.075c-16.053-16.056-25.072-37.831-25.072-60.537s9.018-44.481 25.072-60.536l366.579-365.779-366.579-365.779c-7.991-7.927-14.333-17.357-18.661-27.747s-6.557-21.534-6.557-32.79c0-11.255 2.229-22.399 6.557-32.79s10.67-19.821 18.661-27.746c7.926-7.992 17.354-14.335 27.743-18.663 10.389-4.33 21.531-6.558 32.785-6.558s22.397 2.227 32.785 6.558c10.39 4.329 19.817 10.672 27.743 18.663l365.726 366.63 365.726-366.63c7.926-7.992 17.355-14.335 27.743-18.663 10.39-4.33 21.531-6.558 32.785-6.558s22.398 2.227 32.785 6.558c10.39 4.329 19.817 10.672 27.743 18.663 7.99 7.926 14.333 17.357 18.661 27.746 4.329 10.391 6.557 21.535 6.557 32.79 0 11.257-2.227 22.401-6.557 32.79-4.327 10.391-10.67 19.821-18.661 27.747l-366.579 365.779z" />
</font>
</defs>
</svg>
